<?xml version="1.0" encoding="utf-8"?>
<!-- Generator: Adobe Illustrator 23.1.0, SVG Export Plug-In . SVG Version: 6.00 Build 0)  -->
<svg version="1.1" id="Layer_1" xmlns="http://www.w3.org/2000/svg" xmlns:xlink="http://www.w3.org/1999/xlink" x="0px" y="0px"
	 viewBox="0 0 340 75" style="enable-background:new 0 0 340 75;" xml:space="preserve">
<style type="text/css">
	.st0{fill:#FFFFFF;}
</style>
<g>
	<g>
		<path class="st0" d="M34.7,23.2h2.9L49,50.9h-3.8L42,42.8H30.3l-3.2,8.1h-3.7L34.7,23.2z M41.2,40l-5-12.8L31.1,40
			C31.1,40,41.2,40,41.2,40z"/>
		<path class="st0" d="M55,50.8V23.2h3.5v24.5H74v3.1L55,50.8L55,50.8z"/>
		<path class="st0" d="M80.1,50.8V23.2h3.5v24.5h15.4v3.1L80.1,50.8L80.1,50.8z"/>
		<path class="st0" d="M113.6,23.2h2.9l11.3,27.7h-3.8l-3.3-8.1h-11.6l-3.2,8.1h-3.8L113.6,23.2z M120.1,40l-5-12.8L110,40
			C110,40,120.1,40,120.1,40z"/>
		<path class="st0" d="M137.4,29.7v21.1h-3.5V23.2h2.7l17.2,21.5V23.2h3.5v27.6h-2.9L137.4,29.7z"/>
		<path class="st0" d="M215,50.8V23.2h3.5v15.2l14.3-15.3h3.8l-11.1,12.2l11.7,15.5h-3.8l-10-13.5l-4.8,5v8.4L215,50.8L215,50.8z"/>
		<path class="st0" d="M242.7,50.8V23.2h3.5v24.5h15.4v3.1L242.7,50.8L242.7,50.8z"/>
		<path class="st0" d="M276.2,23.2h2.9l11.3,27.7h-3.8l-3.3-8.1h-11.6l-3.2,8.1h-3.8L276.2,23.2z M282.7,40l-5-12.8L272.6,40
			C272.6,40,282.7,40,282.7,40z"/>
		<path class="st0" d="M296.5,50.8V23.2h11.8c1.2,0,2.4,0.2,3.3,0.8c1,0.5,1.9,1.2,2.7,2s1.3,1.8,1.7,2.8s0.6,2.1,0.6,3.2
			c0,1-0.1,1.9-0.4,2.8c-0.3,0.9-0.6,1.7-1.2,2.4c-0.5,0.8-1.1,1.3-1.8,1.8c-0.7,0.5-1.5,0.9-2.4,1.2l6.7,10.6h-4l-6.3-9.9h-7.3v9.9
			C300.1,50.8,296.5,50.8,296.5,50.8z M300,37.8h8.4c0.8,0,1.4-0.2,2-0.5s1.1-0.8,1.5-1.3c0.4-0.5,0.8-1.2,1-1.8
			c0.2-0.7,0.3-1.4,0.3-2.2c0-0.8-0.1-1.5-0.4-2.2c-0.3-0.7-0.6-1.3-1.1-1.8c-0.5-0.5-1-0.9-1.6-1.3c-0.6-0.3-1.3-0.5-1.9-0.5H300
			V37.8L300,37.8z"/>
	</g>
	<g>
		<g>
			<path class="st0" d="M196.9,21.1c0,0-9.6-7.9-21.7,1.2c0,0-2.1,2-1.2,10.3c0,0-4.1-3.3-5.6-0.1c0,0-2.1,8.6,6.2,11.6
				c0,0,0.2,0.5,0.1,2.3c0,0-0.3,4.5,3.7,6.2c0,0,5.1,2.9,11.8,3.6c0,0,2.9,0.2,2.3-2.8c0,0,0.1,2.9-2.7,2.2c0,0-12.7-2.2-14-7
				c0,0-0.5-1.1-0.4-3.1c0,0,0.3-1.7-1.6-2.8c0,0-6.2-2.6-4.2-10.1c0,0,1-2.6,5.9,3.2c0,0-3.3-9.7,3.2-12.8c0,0,3.8-1.8,8.7,2.4
				c0,0,2.9,1.8,7,0.8C194.5,26,197.6,24.5,196.9,21.1z"/>
			<path class="st0" d="M178.4,34.5c0,0,2.2-2,9.8-0.3c0,0,1.3-0.2,1.7,0c0,0,5.5-1.3,10.5-0.2v0.4c0,0-7.5-1.2-9.9,0.5
				c0,0-0.8-1.3-2.4-0.1c0,0-3.8-1.8-9.4-0.2L178.4,34.5z"/>
			<path class="st0" d="M179,35c0,0-0.3,3.6,1.4,4c0,0,2.7,1.1,5.8-0.1c0,0,0.8-0.1,1.2-3.6c0,0,0.2,3.3-1,4.2c0,0-2.8,1.3-6.6-0.1
				c0,0-0.8-0.3-0.7-4.2V35z"/>
			<path class="st0" d="M191.9,34.7c0,0-0.3,3.6,1.4,4c0,0,2.7,1.1,5.8-0.1c0,0,0.8-0.1,1.2-3.6c0,0,0.2,3.3-1,4.2
				c0,0-2.8,1.3-6.6-0.1c0,0-0.8-0.3-0.7-4.2V34.7z"/>
		</g>
		<path class="st0" d="M178.8,34.2c0,0-0.1,4,0.8,4.9c0,0,5,1.6,6.9-0.2c0,0,0.9-2.3,0.8-4.3C187.3,34.5,184.7,32.7,178.8,34.2z"/>
		<path class="st0" d="M191.9,34.1c0,0-0.1,3.9,0.8,4.7c0,0,5,1.6,6.9-0.2c0,0,0.8-2.4,0.8-4.4C200.3,34.2,197.8,33,191.9,34.1z"/>
	</g>
</g>
</svg>
