<?xml version="1.0" encoding="utf-8"?>
<!-- Generator: Adobe Illustrator 23.1.0, SVG Export Plug-In . SVG Version: 6.00 Build 0)  -->
<svg version="1.1" id="Layer_1" xmlns="http://www.w3.org/2000/svg" xmlns:xlink="http://www.w3.org/1999/xlink" x="0px" y="0px"
	 viewBox="0 0 316 76" style="enable-background:new 0 0 316 76;" xml:space="preserve">
<style type="text/css">
	.st0{fill:#FFFFFF;}
	.st1{fill:#ED2224;}
</style>
<g>
	<g>
		<path class="st0" d="M51.4,48.6c0,1.8-0.4,3.4-1.1,4.8s-1.8,2.5-3,3.5c-1.3,0.9-2.8,1.6-4.5,2.1s-3.5,0.7-5.4,0.7H16.1V16.5h23.4
			c1.5,0,2.9,0.3,4.1,1c1.2,0.6,2.3,1.5,3.1,2.5c0.9,1,1.5,2.2,2,3.5s0.7,2.6,0.7,4c0,2.1-0.5,4.1-1.6,5.9s-2.6,3.2-4.7,4.1
			c2.5,0.7,4.5,2,5.9,3.9C50.6,43.4,51.4,45.8,51.4,48.6z M24.6,23.7v10.9H36c1.4,0,2.7-0.5,3.7-1.5s1.5-2.3,1.5-4s-0.5-3-1.4-4
			s-2.1-1.5-3.4-1.5L24.6,23.7L24.6,23.7z M42.9,47c0-0.8-0.1-1.5-0.4-2.2s-0.6-1.3-1.1-1.9c-0.5-0.5-1-0.9-1.6-1.2
			c-0.6-0.3-1.3-0.5-2-0.5h-13v11.4h12.6c0.8,0,1.5-0.1,2.2-0.4s1.3-0.7,1.8-1.2s0.9-1.1,1.2-1.8C42.6,48.5,42.9,47.8,42.9,47z"/>
		<path class="st0" d="M76.6,60c-3.2,0-6.1-0.6-8.7-1.9c-2.6-1.2-4.8-2.9-6.7-4.9c-1.9-2-3.3-4.4-4.3-7s-1.5-5.3-1.5-8.1
			c0-2.9,0.5-5.6,1.6-8.3c1.1-2.6,2.6-5,4.5-7s4.2-3.6,6.8-4.8c2.6-1.2,5.5-1.8,8.5-1.8c3.2,0,6,0.6,8.6,1.9c2.6,1.3,4.8,3,6.7,5
			c1.8,2.1,3.3,4.4,4.3,7.1c1,2.6,1.5,5.3,1.5,8c0,2.9-0.5,5.6-1.6,8.2c-1.1,2.6-2.5,4.9-4.4,6.9c-1.9,2-4.1,3.6-6.8,4.8
			C82.6,59.4,79.8,60,76.6,60z M64,38.1c0,1.9,0.3,3.7,0.9,5.4c0.6,1.7,1.4,3.3,2.5,4.6c1.1,1.3,2.4,2.4,4,3.2
			c1.6,0.8,3.4,1.2,5.4,1.2s3.9-0.4,5.4-1.2c1.6-0.8,2.9-1.9,4-3.3c1.1-1.4,1.9-2.9,2.5-4.7c0.6-1.7,0.8-3.5,0.8-5.3
			c0-1.9-0.3-3.7-0.9-5.4c-0.6-1.7-1.4-3.3-2.5-4.6c-1.1-1.3-2.4-2.4-4-3.2c-1.6-0.8-3.4-1.2-5.3-1.2c-2.1,0-3.9,0.4-5.5,1.2
			c-1.6,0.8-2.9,1.9-4,3.3c-1.1,1.4-1.9,2.9-2.4,4.6C64.3,34.6,64,36.3,64,38.1z"/>
		<path class="st0" d="M112.9,32v27.7h-8.5V16.5h6.6l22.7,28.4V16.6h8.5v43.1h-6.9L112.9,32z"/>
		<path class="st0" d="M151.4,59.7V16.5h29.3v7.4h-20.8V35h17.3v6.8h-17.3v17.9H151.4z"/>
		<path class="st0" d="M229.6,59.7V16.5h19.3c2,0,3.9,0.4,5.6,1.2c1.7,0.8,3.2,1.9,4.4,3.3c1.2,1.4,2.2,2.9,2.9,4.6
			c0.7,1.7,1,3.5,1,5.2c0,2.8-0.7,5.3-2.1,7.6c-1.4,2.3-3.3,3.9-5.7,5l10,16.2h-9.5l-8.9-14.5h-8.4v14.5h-8.6V59.7z M238.1,37.9
			h10.6c0.8,0,1.5-0.2,2.2-0.5c0.7-0.4,1.3-0.9,1.8-1.5s0.9-1.4,1.2-2.2c0.3-0.9,0.4-1.8,0.4-2.7c0-1-0.2-1.9-0.5-2.8
			s-0.8-1.6-1.3-2.2c-0.6-0.6-1.2-1.1-1.9-1.5c-0.7-0.3-1.4-0.5-2.2-0.5h-10.3L238.1,37.9L238.1,37.9z"/>
		<path class="st0" d="M300.8,52.4v7.4h-30.3V16.5h29.8v7.4H279v10.4h18.4v6.8H279v11.3C279,52.4,300.8,52.4,300.8,52.4z"/>
	</g>
	<path class="st1" d="M211.3,6.9c0,0-49.3,39.6-16.7,53.3c0,0,34.2,10.4,21.3-31.9c0,0-4,8.3-11.4,5.6
		C204.4,33.9,194.2,30.9,211.3,6.9z"/>
</g>
</svg>
