<?xml version="1.0" encoding="utf-8"?>
<!-- Generator: Adobe Illustrator 23.0.1, SVG Export Plug-In . SVG Version: 6.00 Build 0)  -->
<svg version="1.1" id="Layer_1" xmlns="http://www.w3.org/2000/svg" xmlns:xlink="http://www.w3.org/1999/xlink" x="0px" y="0px"
	 viewBox="0 0 430 135" style="enable-background:new 0 0 430 135;" xml:space="preserve">
<style type="text/css">
	.st0{fill:#010101;}
	.st1{fill:#ED2224;}
</style>
<g>
	<g>
		<path class="st0" d="M58.83,74.69c0,2.66-0.54,5-1.61,7.01c-1.08,2.01-2.55,3.7-4.44,5.06c-1.88,1.36-4.06,2.39-6.54,3.1
			c-2.48,0.71-5.12,1.06-7.93,1.06H7.57V27.94h34.05c2.21,0,4.21,0.47,6,1.42c1.79,0.95,3.32,2.17,4.57,3.68
			c1.25,1.51,2.23,3.22,2.91,5.15c0.69,1.92,1.03,3.86,1.03,5.81c0,3.08-0.78,5.96-2.33,8.65c-1.55,2.69-3.82,4.69-6.81,5.99
			c3.64,1.06,6.53,2.97,8.65,5.72C57.77,67.1,58.83,70.55,58.83,74.69z M19.94,38.41v15.88h16.49c2.09,0,3.87-0.71,5.33-2.13
			s2.2-3.37,2.2-5.85c0-2.42-0.67-4.35-2.02-5.77c-1.34-1.42-3-2.13-4.97-2.13H19.94z M46.38,72.38c0-1.12-0.19-2.2-0.58-3.24
			c-0.39-1.03-0.91-1.94-1.57-2.71c-0.66-0.77-1.43-1.37-2.33-1.82c-0.9-0.44-1.88-0.67-2.96-0.67h-19v16.59h18.37
			c1.13,0,2.2-0.21,3.18-0.62s1.84-0.99,2.55-1.73c0.72-0.74,1.28-1.61,1.7-2.62C46.17,74.57,46.38,73.51,46.38,72.38z"/>
		<path class="st0" d="M95.66,91.36c-4.66,0-8.89-0.9-12.68-2.71c-3.79-1.8-7.05-4.2-9.77-7.18c-2.72-2.99-4.83-6.4-6.32-10.25
			c-1.49-3.84-2.24-7.78-2.24-11.8c0-4.2,0.79-8.22,2.37-12.06c1.58-3.84,3.76-7.24,6.54-10.2c2.78-2.96,6.08-5.31,9.9-7.05
			c3.82-1.74,7.98-2.62,12.46-2.62c4.6,0,8.8,0.93,12.59,2.79c3.79,1.86,7.03,4.3,9.72,7.32s4.78,6.45,6.27,10.29
			c1.49,3.84,2.24,7.75,2.24,11.71c0,4.2-0.78,8.2-2.33,12.02c-1.55,3.81-3.7,7.18-6.45,10.11c-2.75,2.93-6.04,5.26-9.86,7.01
			C104.29,90.49,100.14,91.36,95.66,91.36z M77.2,59.43c0,2.72,0.42,5.35,1.25,7.89c0.84,2.54,2.05,4.79,3.63,6.74
			c1.58,1.95,3.52,3.52,5.83,4.7c2.3,1.18,4.91,1.77,7.84,1.77c2.99,0,5.63-0.61,7.93-1.82c2.3-1.21,4.24-2.82,5.82-4.83
			c1.58-2.01,2.78-4.27,3.58-6.79c0.81-2.51,1.21-5.07,1.21-7.67c0-2.72-0.43-5.35-1.3-7.89c-0.87-2.54-2.09-4.79-3.67-6.74
			c-1.58-1.95-3.53-3.5-5.83-4.66c-2.3-1.15-4.88-1.73-7.75-1.73c-2.99,0-5.65,0.61-7.98,1.82s-4.27,2.81-5.82,4.79
			c-1.55,1.98-2.73,4.23-3.54,6.74C77.6,54.27,77.2,56.83,77.2,59.43z"/>
		<path class="st0" d="M148.62,50.56v40.36h-12.37V27.94h9.59L179,69.28V28.03h12.37v62.89h-10.04L148.62,50.56z"/>
		<path class="st0" d="M204.63,90.92V27.94h42.74v10.73h-30.38v16.23h25.27v9.93h-25.27v26.08H204.63z"/>
		<path class="st0" d="M318.61,90.92V27.94h28.14c2.93,0,5.63,0.61,8.11,1.82c2.48,1.21,4.61,2.81,6.41,4.79
			c1.79,1.98,3.2,4.23,4.21,6.74c1.02,2.51,1.52,5.04,1.52,7.58c0,4.08-1.03,7.79-3.09,11.13c-2.06,3.34-4.85,5.75-8.38,7.23
			l14.52,23.68h-13.89l-12.99-21.11h-12.19v21.11H318.61z M330.97,59.08h15.5c1.13,0,2.2-0.27,3.18-0.8
			c0.99-0.53,1.84-1.26,2.55-2.17c0.72-0.92,1.28-2,1.7-3.24c0.42-1.24,0.63-2.57,0.63-3.99c0-1.48-0.24-2.84-0.72-4.08
			c-0.48-1.24-1.12-2.32-1.93-3.24c-0.81-0.92-1.73-1.63-2.78-2.13c-1.05-0.5-2.11-0.75-3.18-0.75h-14.97V59.08z"/>
		<path class="st0" d="M422.38,80.19v10.73H378.2V27.94h43.37v10.73h-31.01v15.17h26.79v9.93h-26.79v16.41H422.38z"/>
	</g>
	<g>
		<g>
			<path class="st0" d="M18.42,112.58h-6.87v7.23H8.59v-17.06h10.84v2.39h-7.88v5.07h6.87V112.58z"/>
			<path class="st0" d="M34.15,112.2h-7.01v5.25h8.19v2.37H24.17v-17.06h11.07v2.39h-8.11v4.71h7.01V112.2z"/>
			<path class="st0" d="M50.12,112.2h-7.01v5.25h8.19v2.37H40.14v-17.06h11.07v2.39h-8.11v4.71h7.01V112.2z"/>
			<path class="st0" d="M59.08,117.45h7.75v2.37H56.11v-17.06h2.96V117.45z"/>
			<path class="st0" d="M89.71,112.58h-6.87v7.23h-2.96v-17.06h10.84v2.39h-7.88v5.07h6.87V112.58z"/>
			<path class="st0" d="M101.73,113.25h-3.3v6.56h-2.96v-17.06h6c1.97,0,3.49,0.44,4.56,1.33s1.61,2.16,1.61,3.83
				c0,1.14-0.28,2.1-0.83,2.87c-0.55,0.77-1.32,1.36-2.3,1.78l3.83,7.11v0.15h-3.18L101.73,113.25z M98.42,110.86h3.05
				c1,0,1.78-0.25,2.34-0.76s0.84-1.19,0.84-2.07c0-0.91-0.26-1.62-0.78-2.12s-1.29-0.76-2.33-0.77h-3.13V110.86z"/>
			<path class="st0" d="M122.81,112.2h-7.01v5.25h8.19v2.37h-11.16v-17.06h11.07v2.39h-8.11v4.71h7.01V112.2z"/>
			<path class="st0" d="M138.78,112.2h-7.01v5.25h8.19v2.37H128.8v-17.06h11.07v2.39h-8.11v4.71h7.01V112.2z"/>
			<path class="st0" d="M164.78,105.14h-5.32v14.67h-2.94v-14.67h-5.27v-2.39h13.54V105.14z"/>
			<path class="st0" d="M182.7,111.73c0,1.67-0.29,3.14-0.87,4.4s-1.4,2.23-2.48,2.91s-2.31,1.01-3.71,1.01
				c-1.38,0-2.62-0.34-3.7-1.01s-1.92-1.64-2.51-2.89s-0.89-2.69-0.9-4.32v-0.96c0-1.66,0.29-3.13,0.88-4.41s1.42-2.25,2.5-2.92
				s2.31-1.01,3.7-1.01s2.62,0.33,3.7,1s1.9,1.63,2.49,2.88s0.88,2.71,0.89,4.38V111.73z M179.74,110.84c0-1.89-0.36-3.34-1.07-4.35
				s-1.73-1.51-3.04-1.51c-1.28,0-2.28,0.5-3.01,1.51s-1.09,2.42-1.11,4.26v0.98c0,1.88,0.37,3.32,1.1,4.35s1.74,1.54,3.04,1.54
				c1.31,0,2.32-0.5,3.03-1.5s1.06-2.46,1.06-4.38V110.84z"/>
			<path class="st0" d="M205.35,115.42c0-0.75-0.26-1.33-0.79-1.73s-1.48-0.82-2.85-1.23s-2.47-0.88-3.28-1.38
				c-1.55-0.98-2.33-2.25-2.33-3.82c0-1.38,0.56-2.51,1.68-3.4s2.58-1.34,4.37-1.34c1.19,0,2.25,0.22,3.18,0.66s1.66,1.06,2.19,1.87
				s0.8,1.71,0.8,2.69h-2.95c0-0.89-0.28-1.59-0.84-2.09s-1.36-0.76-2.4-0.76c-0.97,0-1.72,0.21-2.26,0.62s-0.8,0.99-0.8,1.73
				c0,0.63,0.29,1.15,0.87,1.56s1.53,0.82,2.86,1.22s2.39,0.84,3.2,1.35s1.39,1.08,1.77,1.73s0.56,1.42,0.56,2.29
				c0,1.42-0.54,2.55-1.63,3.39s-2.57,1.26-4.44,1.26c-1.23,0-2.37-0.23-3.4-0.69s-1.84-1.09-2.41-1.89s-0.86-1.74-0.86-2.81h2.96
				c0,0.97,0.32,1.72,0.96,2.25s1.56,0.8,2.75,0.8c1.03,0,1.81-0.21,2.33-0.63S205.35,116.11,205.35,115.42z"/>
			<path class="st0" d="M222.87,115.84h-6.61l-1.38,3.97h-3.08l6.45-17.06h2.66l6.46,17.06h-3.09L222.87,115.84z M217.09,113.45
				h4.95l-2.47-7.08L217.09,113.45z"/>
			<path class="st0" d="M236.8,116.1l4.34-13.35h3.26l-6.14,17.06h-2.87l-6.12-17.06h3.25L236.8,116.1z"/>
			<path class="st0" d="M258.69,112.2h-7.01v5.25h8.19v2.37h-11.16v-17.06h11.07v2.39h-8.11v4.71h7.01V112.2z"/>
			<path class="st0" d="M282.61,115.84H276l-1.38,3.97h-3.08l6.45-17.06h2.66l6.46,17.06h-3.09L282.61,115.84z M276.84,113.45h4.95
				l-2.47-7.08L276.84,113.45z"/>
			<path class="st0" d="M304.97,119.81h-2.96l-7.61-12.11v12.11h-2.96v-17.06h2.96l7.63,12.15v-12.15h2.94V119.81z"/>
			<path class="st0" d="M316.11,110.84l3.93-8.09h3.28l-5.72,10.78v6.28h-2.98v-6.28l-5.73-10.78h3.29L316.11,110.84z"/>
			<path class="st0" d="M341.15,115.59l2.63-12.84h2.94l-3.94,17.06h-2.84l-3.25-12.46l-3.32,12.46h-2.85l-3.94-17.06h2.94
				l2.65,12.82l3.26-12.82h2.48L341.15,115.59z"/>
			<path class="st0" d="M364.83,119.81h-2.95v-7.57h-7.63v7.57h-2.96v-17.06h2.96v7.1h7.63v-7.1h2.95V119.81z"/>
			<path class="st0" d="M380.71,112.2h-7.01v5.25h8.19v2.37h-11.16v-17.06h11.07v2.39h-8.11v4.71h7.01V112.2z"/>
			<path class="st0" d="M392.98,113.25h-3.3v6.56h-2.96v-17.06h6c1.97,0,3.49,0.44,4.56,1.33s1.61,2.16,1.61,3.83
				c0,1.14-0.28,2.1-0.83,2.87c-0.55,0.77-1.32,1.36-2.3,1.78l3.83,7.11v0.15h-3.18L392.98,113.25z M389.67,110.86h3.05
				c1,0,1.78-0.25,2.34-0.76s0.84-1.19,0.84-2.07c0-0.91-0.26-1.62-0.78-2.12s-1.29-0.76-2.33-0.77h-3.13V110.86z"/>
			<path class="st0" d="M414.06,112.2h-7.01v5.25h8.19v2.37h-11.16v-17.06h11.07v2.39h-8.11v4.71h7.01V112.2z"/>
		</g>
	</g>
	<path class="st1" d="M291.9,13.95c0,0-71.79,57.65-24.35,77.62c0,0,49.8,15.15,30.99-46.43c0,0-5.81,12.11-16.55,8.15
		C281.99,53.29,267.03,48.95,291.9,13.95z"/>
</g>
</svg>
