<?xml version="1.0" encoding="utf-8"?>
<!-- Generator: Adobe Illustrator 23.1.0, SVG Export Plug-In . SVG Version: 6.00 Build 0)  -->
<svg version="1.1" id="Layer_1" xmlns="http://www.w3.org/2000/svg" xmlns:xlink="http://www.w3.org/1999/xlink" x="0px" y="0px"
	 viewBox="0 0 372 78" style="enable-background:new 0 0 372 78;" xml:space="preserve">
<style type="text/css">
	.st0{fill:#010101;}
	.st1{fill:#ED2224;}
</style>
<g>
	<path class="st0" d="M83.8,52.8c0,1.8-0.4,3.4-1.1,4.8s-1.8,2.5-3,3.5c-1.3,0.9-2.8,1.6-4.5,2.1s-3.5,0.7-5.4,0.7H48.6V20.7H72
		c1.5,0,2.9,0.3,4.1,1c1.2,0.6,2.3,1.5,3.1,2.5c0.9,1,1.5,2.2,2,3.5s0.7,2.6,0.7,4c0,2.1-0.5,4.1-1.6,5.9s-2.6,3.2-4.7,4.1
		c2.5,0.7,4.5,2,5.9,3.9C83.1,47.6,83.8,50,83.8,52.8z M57.1,27.9v10.9h11.3c1.4,0,2.7-0.5,3.7-1.5s1.5-2.3,1.5-4s-0.5-3-1.4-4
		s-2.1-1.5-3.4-1.5L57.1,27.9L57.1,27.9z M75.3,51.2c0-0.8-0.1-1.5-0.4-2.2s-0.6-1.3-1.1-1.9c-0.5-0.5-1-0.9-1.6-1.2
		c-0.6-0.3-1.3-0.5-2-0.5h-13v11.4h12.6c0.8,0,1.5-0.1,2.2-0.4s1.3-0.7,1.8-1.2s0.9-1.1,1.2-1.8C75.1,52.7,75.3,52,75.3,51.2z"/>
	<path class="st0" d="M109.1,64.2c-3.2,0-6.1-0.6-8.7-1.9c-2.6-1.2-4.8-2.9-6.7-4.9c-1.9-2-3.3-4.4-4.3-7s-1.5-5.3-1.5-8.1
		c0-2.9,0.5-5.6,1.6-8.3c1.1-2.6,2.6-5,4.5-7s4.2-3.6,6.8-4.8c2.6-1.2,5.5-1.8,8.5-1.8c3.2,0,6,0.6,8.6,1.9s4.8,3,6.7,5
		c1.8,2.1,3.3,4.4,4.3,7.1c1,2.6,1.5,5.3,1.5,8c0,2.9-0.5,5.6-1.6,8.2c-1.1,2.6-2.5,4.9-4.4,6.9s-4.1,3.6-6.8,4.8
		C115,63.6,112.2,64.2,109.1,64.2z M96.4,42.3c0,1.9,0.3,3.7,0.9,5.4c0.6,1.7,1.4,3.3,2.5,4.6c1.1,1.3,2.4,2.4,4,3.2
		c1.6,0.8,3.4,1.2,5.4,1.2s3.9-0.4,5.4-1.2c1.6-0.8,2.9-1.9,4-3.3s1.9-2.9,2.5-4.7c0.6-1.7,0.8-3.5,0.8-5.3c0-1.9-0.3-3.7-0.9-5.4
		c-0.6-1.7-1.4-3.3-2.5-4.6c-1.1-1.3-2.4-2.4-4-3.2c-1.6-0.8-3.4-1.2-5.3-1.2c-2.1,0-3.9,0.4-5.5,1.2c-1.6,0.8-2.9,1.9-4,3.3
		s-1.9,2.9-2.4,4.6C96.7,38.8,96.4,40.5,96.4,42.3z"/>
	<path class="st0" d="M145.4,36.2v27.7h-8.5V20.7h6.6l22.7,28.4V20.8h8.5v43.1h-6.9L145.4,36.2z"/>
	<path class="st0" d="M183.8,63.9V20.7h29.3v7.4h-20.8v11.1h17.3V46h-17.3v17.9H183.8z"/>
	<path class="st0" d="M262,63.9V20.7h19.3c2,0,3.9,0.4,5.6,1.2c1.7,0.8,3.2,1.9,4.4,3.3c1.2,1.4,2.2,2.9,2.9,4.6
		c0.7,1.7,1,3.5,1,5.2c0,2.8-0.7,5.3-2.1,7.6c-1.4,2.3-3.3,3.9-5.7,5l10,16.2h-9.5L279,49.3h-8.4v14.5H262V63.9z M270.5,42.1h10.6
		c0.8,0,1.5-0.2,2.2-0.5c0.7-0.4,1.3-0.9,1.8-1.5s0.9-1.4,1.2-2.2c0.3-0.9,0.4-1.8,0.4-2.7c0-1-0.2-1.9-0.5-2.8s-0.8-1.6-1.3-2.2
		c-0.6-0.6-1.2-1.1-1.9-1.5c-0.7-0.3-1.4-0.5-2.2-0.5h-10.3L270.5,42.1L270.5,42.1z"/>
	<path class="st0" d="M333.2,56.6V64h-30.3V20.7h29.8v7.4h-21.3v10.4h18.4v6.8h-18.4v11.3C311.4,56.6,333.2,56.6,333.2,56.6z"/>
</g>
<path class="st1" d="M243.7,11.1c0,0-49.3,39.6-16.7,53.3c0,0,34.2,10.4,21.3-31.9c0,0-4,8.3-11.4,5.6
	C236.9,38.1,226.6,35.1,243.7,11.1z"/>
</svg>
