<?xml version="1.0" encoding="utf-8"?>
<!-- Generator: Adobe Illustrator 23.0.1, SVG Export Plug-In . SVG Version: 6.00 Build 0)  -->
<svg version="1.1" id="Layer_1" xmlns="http://www.w3.org/2000/svg" xmlns:xlink="http://www.w3.org/1999/xlink" x="0px" y="0px"
	 viewBox="0 0 612 355" style="enable-background:new 0 0 612 355;" xml:space="preserve">
<style type="text/css">
	.st0{fill:none;stroke:#000000;stroke-width:0.7192;stroke-miterlimit:10;}
	.st1{fill:#FFFFFF;}
	.st2{fill:none;stroke:#000000;stroke-width:0.7192;}
	.st3{font-family:'Helvetica';}
	.st4{font-size:8.6298px;}
</style>
<line class="st0" x1="302.4" y1="57.9" x2="302.4" y2="82.8"/>
<polygon points="302.4,86.6 299.9,81.5 302.4,82.8 304.9,81.5 "/>
<polygon class="st0" points="302.4,86.6 299.9,81.5 302.4,82.8 304.9,81.5 "/>
<polyline class="st0" points="302.4,65.1 72.3,65.1 72.3,82.1 "/>
<polygon points="72.3,85.9 69.8,80.8 72.3,82.1 74.8,80.8 "/>
<polygon class="st0" points="72.3,85.9 69.8,80.8 72.3,82.1 74.8,80.8 "/>
<polyline class="st0" points="244.9,65.1 187.3,65.1 187.3,82.8 "/>
<polygon points="187.3,86.6 184.8,81.5 187.3,82.8 189.9,81.5 "/>
<polygon class="st0" points="187.3,86.6 184.8,81.5 187.3,82.8 189.9,81.5 "/>
<polyline class="st0" points="302.4,65.1 410.3,65.1 410.3,82.1 "/>
<polygon points="410.3,85.9 407.8,80.8 410.3,82.1 412.8,80.8 "/>
<polygon class="st0" points="410.3,85.9 407.8,80.8 410.3,82.1 412.8,80.8 "/>
<polyline class="st0" points="302.4,57.9 302.4,65.1 532.5,65.1 532.5,82.8 "/>
<polygon points="532.5,86.6 530,81.5 532.5,82.8 535.1,81.5 "/>
<polygon class="st0" points="532.5,86.6 530,81.5 532.5,82.8 535.1,81.5 "/>
<path class="st1" d="M265.7,14.7h73.4c0.4,0,0.8,0,1.3,0.1c0.4,0.1,0.8,0.2,1.2,0.4c0.4,0.2,0.8,0.4,1.1,0.6c0.4,0.2,0.7,0.5,1,0.8
	c0.3,0.3,0.6,0.6,0.8,1c0.2,0.4,0.4,0.7,0.6,1.1c0.2,0.4,0.3,0.8,0.4,1.2c0.1,0.4,0.1,0.8,0.1,1.3v30.2c0,0.4,0,0.8-0.1,1.3
	s-0.2,0.8-0.4,1.2c-0.2,0.4-0.4,0.8-0.6,1.1c-0.2,0.4-0.5,0.7-0.8,1c-0.3,0.3-0.6,0.6-1,0.8c-0.4,0.2-0.7,0.4-1.1,0.6
	c-0.4,0.2-0.8,0.3-1.2,0.4c-0.4,0.1-0.8,0.1-1.3,0.1h-73.4c-0.4,0-0.8,0-1.3-0.1c-0.4-0.1-0.8-0.2-1.2-0.4c-0.4-0.2-0.8-0.4-1.1-0.6
	c-0.4-0.2-0.7-0.5-1-0.8c-0.3-0.3-0.6-0.6-0.8-1c-0.2-0.4-0.4-0.7-0.6-1.1s-0.3-0.8-0.4-1.2c-0.1-0.4-0.1-0.8-0.1-1.3V21.2
	c0-0.4,0-0.8,0.1-1.3c0.1-0.4,0.2-0.8,0.4-1.2s0.4-0.8,0.6-1.1c0.2-0.4,0.5-0.7,0.8-1c0.3-0.3,0.6-0.6,1-0.8
	c0.4-0.2,0.7-0.4,1.1-0.6c0.4-0.2,0.8-0.3,1.2-0.4C264.9,14.8,265.3,14.7,265.7,14.7z"/>
<path class="st2" d="M265.7,14.7h73.4c0.4,0,0.8,0,1.3,0.1c0.4,0.1,0.8,0.2,1.2,0.4c0.4,0.2,0.8,0.4,1.1,0.6c0.4,0.2,0.7,0.5,1,0.8
	c0.3,0.3,0.6,0.6,0.8,1c0.2,0.4,0.4,0.7,0.6,1.1c0.2,0.4,0.3,0.8,0.4,1.2c0.1,0.4,0.1,0.8,0.1,1.3v30.2c0,0.4,0,0.8-0.1,1.3
	s-0.2,0.8-0.4,1.2c-0.2,0.4-0.4,0.8-0.6,1.1c-0.2,0.4-0.5,0.7-0.8,1c-0.3,0.3-0.6,0.6-1,0.8c-0.4,0.2-0.7,0.4-1.1,0.6
	c-0.4,0.2-0.8,0.3-1.2,0.4c-0.4,0.1-0.8,0.1-1.3,0.1h-73.4c-0.4,0-0.8,0-1.3-0.1c-0.4-0.1-0.8-0.2-1.2-0.4c-0.4-0.2-0.8-0.4-1.1-0.6
	c-0.4-0.2-0.7-0.5-1-0.8c-0.3-0.3-0.6-0.6-0.8-1c-0.2-0.4-0.4-0.7-0.6-1.1s-0.3-0.8-0.4-1.2c-0.1-0.4-0.1-0.8-0.1-1.3V21.2
	c0-0.4,0-0.8,0.1-1.3c0.1-0.4,0.2-0.8,0.4-1.2s0.4-0.8,0.6-1.1c0.2-0.4,0.5-0.7,0.8-1c0.3-0.3,0.6-0.6,1-0.8
	c0.4-0.2,0.7-0.4,1.1-0.6c0.4-0.2,0.8-0.3,1.2-0.4C264.9,14.8,265.3,14.7,265.7,14.7z"/>
<text transform="matrix(1 0 0 1 279.2563 39.5532)" class="st3 st4">Home Page</text>
<rect x="29.1" y="87.4" class="st1" width="86.3" height="114.3"/>
<rect x="29.1" y="87.4" class="st2" width="86.3" height="114.3"/>
<text transform="matrix(1 0 0 1 34.4971 148.1455)" class="st3 st4">Introductory content</text>
<polyline class="st0" points="187.3,130.5 187.3,144.9 187.3,130.5 187.3,140 "/>
<polygon points="187.3,143.7 184.8,138.7 187.3,140 189.9,138.7 "/>
<polygon class="st0" points="187.3,143.7 184.8,138.7 187.3,140 189.9,138.7 "/>
<rect x="144.2" y="87.4" class="st1" width="86.3" height="43.1"/>
<rect x="144.2" y="87.4" class="st2" width="86.3" height="43.1"/>
<text transform="matrix(1 0 0 1 169.9453 112.188)" class="st3 st4">Features</text>
<polyline class="st0" points="187.3,187.7 187.3,202.4 187.3,187.3 187.3,197.1 "/>
<polygon points="187.3,200.9 184.8,195.9 187.3,197.1 189.9,195.9 "/>
<polygon class="st0" points="187.3,200.9 184.8,195.9 187.3,197.1 189.9,195.9 "/>
<rect x="144.2" y="144.5" class="st1" width="86.3" height="43.1"/>
<rect x="144.2" y="144.5" class="st2" width="86.3" height="43.1"/>
<text transform="matrix(1 0 0 1 163.2368 169.7202)" class="st3 st4">How it works</text>
<rect x="144.2" y="201.7" class="st1" width="86.3" height="43.1"/>
<rect x="144.2" y="201.7" class="st2" width="86.3" height="43.1"/>
<text transform="matrix(1 0 0 1 171.3833 226.5332)" class="st3 st4">Beneﬁts</text>
<polyline class="st0" points="302.4,130.5 302.4,144.9 302.4,130.5 302.4,140.3 "/>
<polygon points="302.4,144.1 299.9,139.1 302.4,140.3 304.9,139.1 "/>
<polygon class="st0" points="302.4,144.1 299.9,139.1 302.4,140.3 304.9,139.1 "/>
<rect x="259.3" y="87.4" class="st1" width="86.3" height="43.1"/>
<rect x="259.3" y="87.4" class="st2" width="86.3" height="43.1"/>
<text transform="matrix(1 0 0 1 289.5713 112.188)" class="st3 st4">Pricing</text>
<polyline class="st0" points="302.4,188.1 302.4,202.4 302.4,187.3 302.4,197.1 "/>
<polygon points="302.4,200.9 299.9,195.9 302.4,197.1 304.9,195.9 "/>
<polygon class="st0" points="302.4,200.9 299.9,195.9 302.4,197.1 304.9,195.9 "/>
<rect x="259.3" y="144.9" class="st1" width="86.3" height="43.1"/>
<rect x="259.3" y="144.9" class="st2" width="86.3" height="43.1"/>
<text transform="matrix(1 0 0 1 291.9653 169.7202)" class="st3 st4">Plans</text>
<rect x="259.3" y="201.7" class="st1" width="86.3" height="43.1"/>
<rect x="259.3" y="201.7" class="st2" width="86.3" height="43.1"/>
<text transform="matrix(1 0 0 1 287.167 226.5332)" class="st3 st4">SIgn up</text>
<polyline class="st0" points="417.5,130.5 417.5,144.9 417.5,130.5 417.5,140.3 "/>
<polygon points="417.5,144.1 415,139.1 417.5,140.3 420,139.1 "/>
<polygon class="st0" points="417.5,144.1 415,139.1 417.5,140.3 420,139.1 "/>
<rect x="374.3" y="87.4" class="st1" width="86.3" height="43.1"/>
<rect x="374.3" y="87.4" class="st2" width="86.3" height="43.1"/>
<text transform="matrix(1 0 0 1 403.1865 112.188)" class="st3 st4">Sign up</text>
<polyline class="st0" points="417.5,188.1 417.5,202.4 417.5,188.1 417.5,197.9 "/>
<polygon points="417.5,201.6 415,196.6 417.5,197.9 420,196.6 "/>
<polygon class="st0" points="417.5,201.6 415,196.6 417.5,197.9 420,196.6 "/>
<rect x="374.3" y="144.9" class="st1" width="86.3" height="43.1"/>
<rect x="374.3" y="144.9" class="st2" width="86.3" height="43.1"/>
<text transform="matrix(1 0 0 1 393.3555 169.7202)" class="st3 st4">Sign up form</text>
<rect x="374.3" y="202.4" class="st1" width="86.3" height="43.1"/>
<rect x="374.3" y="202.4" class="st2" width="86.3" height="43.1"/>
<text transform="matrix(1 0 0 1 390.2422 227.2524)" class="st3 st4">Account home</text>
<path class="st1" d="M213.9,288h73.4c0.4,0,0.8,0,1.3,0.1c0.4,0.1,0.8,0.2,1.2,0.4c0.4,0.2,0.8,0.4,1.1,0.6c0.4,0.2,0.7,0.5,1,0.8
	c0.3,0.3,0.6,0.6,0.8,1c0.2,0.4,0.4,0.7,0.6,1.1c0.2,0.4,0.3,0.8,0.4,1.2s0.1,0.8,0.1,1.3v30.2c0,0.4,0,0.8-0.1,1.3
	c-0.1,0.4-0.2,0.8-0.4,1.2c-0.2,0.4-0.4,0.8-0.6,1.1c-0.2,0.4-0.5,0.7-0.8,1c-0.3,0.3-0.6,0.6-1,0.8c-0.4,0.2-0.7,0.4-1.1,0.6
	c-0.4,0.2-0.8,0.3-1.2,0.4c-0.4,0.1-0.8,0.1-1.3,0.1h-73.4c-0.4,0-0.8,0-1.3-0.1c-0.4-0.1-0.8-0.2-1.2-0.4c-0.4-0.2-0.8-0.4-1.1-0.6
	c-0.4-0.2-0.7-0.5-1-0.8c-0.3-0.3-0.6-0.6-0.8-1c-0.2-0.4-0.4-0.7-0.6-1.1c-0.2-0.4-0.3-0.8-0.4-1.2c-0.1-0.4-0.1-0.8-0.1-1.3v-30.2
	c0-0.4,0-0.8,0.1-1.3c0.1-0.4,0.2-0.8,0.4-1.2c0.2-0.4,0.4-0.8,0.6-1.1c0.2-0.4,0.5-0.7,0.8-1c0.3-0.3,0.6-0.6,1-0.8
	c0.4-0.2,0.7-0.4,1.1-0.6c0.4-0.2,0.8-0.3,1.2-0.4C213.1,288.1,213.5,288,213.9,288z"/>
<path class="st2" d="M213.9,288h73.4c0.4,0,0.8,0,1.3,0.1c0.4,0.1,0.8,0.2,1.2,0.4c0.4,0.2,0.8,0.4,1.1,0.6c0.4,0.2,0.7,0.5,1,0.8
	c0.3,0.3,0.6,0.6,0.8,1c0.2,0.4,0.4,0.7,0.6,1.1c0.2,0.4,0.3,0.8,0.4,1.2s0.1,0.8,0.1,1.3v30.2c0,0.4,0,0.8-0.1,1.3
	c-0.1,0.4-0.2,0.8-0.4,1.2c-0.2,0.4-0.4,0.8-0.6,1.1c-0.2,0.4-0.5,0.7-0.8,1c-0.3,0.3-0.6,0.6-1,0.8c-0.4,0.2-0.7,0.4-1.1,0.6
	c-0.4,0.2-0.8,0.3-1.2,0.4c-0.4,0.1-0.8,0.1-1.3,0.1h-73.4c-0.4,0-0.8,0-1.3-0.1c-0.4-0.1-0.8-0.2-1.2-0.4c-0.4-0.2-0.8-0.4-1.1-0.6
	c-0.4-0.2-0.7-0.5-1-0.8c-0.3-0.3-0.6-0.6-0.8-1c-0.2-0.4-0.4-0.7-0.6-1.1c-0.2-0.4-0.3-0.8-0.4-1.2c-0.1-0.4-0.1-0.8-0.1-1.3v-30.2
	c0-0.4,0-0.8,0.1-1.3c0.1-0.4,0.2-0.8,0.4-1.2c0.2-0.4,0.4-0.8,0.6-1.1c0.2-0.4,0.5-0.7,0.8-1c0.3-0.3,0.6-0.6,1-0.8
	c0.4-0.2,0.7-0.4,1.1-0.6c0.4-0.2,0.8-0.3,1.2-0.4C213.1,288.1,213.5,288,213.9,288z"/>
<text transform="matrix(1 0 0 1 222.6792 312.832)" class="st3 st4">Account Home</text>
<polyline class="st0" points="532.5,130.5 532.5,309.6 298.4,309.6 "/>
<polygon points="294.6,309.6 299.6,307.1 298.4,309.6 299.6,312.1 "/>
<polygon class="st0" points="294.6,309.6 299.6,307.1 298.4,309.6 299.6,312.1 "/>
<rect x="489.4" y="87.4" class="st1" width="86.3" height="43.1"/>
<rect x="489.4" y="87.4" class="st2" width="86.3" height="43.1"/>
<text transform="matrix(1 0 0 1 521.6113 112.188)" class="st3 st4">Login</text>
<path class="st1" d="M491.5,29.1h82c0.3,0,0.6,0.1,0.8,0.2c0.3,0.1,0.5,0.3,0.7,0.5c0.2,0.2,0.4,0.4,0.5,0.7
	c0.1,0.3,0.2,0.5,0.2,0.8v10.1c0,0.3-0.1,0.6-0.2,0.8c-0.1,0.3-0.3,0.5-0.5,0.7c-0.2,0.2-0.4,0.4-0.7,0.5c-0.3,0.1-0.5,0.2-0.8,0.2
	h-82c-0.3,0-0.6-0.1-0.8-0.2c-0.3-0.1-0.5-0.3-0.7-0.5c-0.2-0.2-0.4-0.4-0.5-0.7c-0.1-0.3-0.2-0.5-0.2-0.8V31.3
	c0-0.3,0.1-0.6,0.2-0.8c0.1-0.3,0.3-0.5,0.5-0.7c0.2-0.2,0.4-0.4,0.7-0.5C491,29.2,491.3,29.1,491.5,29.1z"/>
<path class="st2" d="M491.5,29.1h82c0.3,0,0.6,0.1,0.8,0.2c0.3,0.1,0.5,0.3,0.7,0.5c0.2,0.2,0.4,0.4,0.5,0.7
	c0.1,0.3,0.2,0.5,0.2,0.8v10.1c0,0.3-0.1,0.6-0.2,0.8c-0.1,0.3-0.3,0.5-0.5,0.7c-0.2,0.2-0.4,0.4-0.7,0.5c-0.3,0.1-0.5,0.2-0.8,0.2
	h-82c-0.3,0-0.6-0.1-0.8-0.2c-0.3-0.1-0.5-0.3-0.7-0.5c-0.2-0.2-0.4-0.4-0.5-0.7c-0.1-0.3-0.2-0.5-0.2-0.8V31.3
	c0-0.3,0.1-0.6,0.2-0.8c0.1-0.3,0.3-0.5,0.5-0.7c0.2-0.2,0.4-0.4,0.7-0.5C491,29.2,491.3,29.1,491.5,29.1z"/>
<text transform="matrix(1 0 0 1 514.9033 39.5532)" class="st3 st4">SEARCH</text>
</svg>
