<?xml version="1.0" encoding="utf-8"?>
<!-- Generator: Adobe Illustrator 23.0.1, SVG Export Plug-In . SVG Version: 6.00 Build 0)  -->
<svg version="1.1" xmlns="http://www.w3.org/2000/svg" xmlns:xlink="http://www.w3.org/1999/xlink" x="0px" y="0px"
	 viewBox="0 0 100 125" style="enable-background:new 0 0 100 125;" xml:space="preserve">
<style type="text/css">
	.st0{fill:#D32E27;}
</style>
<g id="Layer_2">
</g>
<g id="Layer_1">
	<g>
		<path d="M5273.1,2400.1v-2c0-2.8-5-4-9.7-4s-9.7,1.3-9.7,4v2c0,1.8,0.7,3.6,2,4.9l5,4.9c0.3,0.3,0.4,0.6,0.4,1v6.4
			c0,0.4,0.2,0.7,0.6,0.8l2.9,0.9c0.5,0.1,1-0.2,1-0.8v-7.2c0-0.4,0.2-0.7,0.4-1l5.1-5C5272.4,2403.7,5273.1,2401.9,5273.1,2400.1z
			 M5263.4,2400c-4.8,0-7.4-1.3-7.5-1.8l0,0c0.1-0.5,2.7-1.8,7.5-1.8s7.3,1.3,7.5,1.8C5270.7,2398.7,5268.2,2400,5263.4,2400z"/>
		<path d="M5268.4,2410.3c-0.6,0-1,0.4-1,1s0.4,1,1,1h4.3c0.6,0,1-0.4,1-1s-0.4-1-1-1H5268.4z"/>
		<path d="M5272.7,2413.7h-4.3c-0.6,0-1,0.4-1,1s0.4,1,1,1h4.3c0.6,0,1-0.4,1-1C5273.7,2414.1,5273.3,2413.7,5272.7,2413.7z"/>
		<path d="M5272.7,2417h-4.3c-0.6,0-1,0.4-1,1s0.4,1,1,1h4.3c0.6,0,1-0.4,1-1C5273.7,2417.5,5273.3,2417,5272.7,2417z"/>
	</g>
	<g>
		<path class="st0" d="M59.1,74.5c-1.4-1.2-2.8-2.7-4.4-4.3c-1.1-1.2-2.3-2.9-3.3-4.7c1.9-6.5,2.8-12.7,0.8-15.7
			c-0.9-1.4-2.3-2.1-4.1-2.1c-2,0-3.5,0.9-4.2,2.6c-1.6,3.6,0.8,10.2,3.7,15.6c-0.8,2.6-1.8,5.4-3,8.5c-0.7,1.7-1.5,3.4-2.3,5
			c-8.2,3.2-13.2,6.8-13.9,10.2c-0.3,1.6,0.2,3,1.6,4.1c0.8,0.6,1.7,1,2.7,1c0.4,0,0.8-0.1,1.2-0.2c3.8-1,7.9-6.6,10.9-12.3
			c1.8-0.7,3.9-1.4,6.2-2c2.7-0.8,5.1-1.4,7.2-1.8c3.9,3.1,7.2,4.8,10.1,4.8c2.2,0.1,3.8-0.7,5.3-2.2c2.2-2.2,1.3-4.1,1-4.6
			C72.8,73.6,67.3,73,59.1,74.5z M32.9,91c-0.4,0.1-0.6,0-0.8-0.1c-0.4-0.3-0.4-0.5-0.3-0.7c0.2-1.2,2.5-3.4,7.5-5.8
			C36.9,88,34.5,90.6,32.9,91z M47.1,51.7c0.1-0.2,0.2-0.5,1-0.5c0.7,0,1,0.3,1.2,0.5c0.9,1.3,0.8,4.6-0.3,9
			C47.3,56.9,46.4,53.3,47.1,51.7z M49.9,76.7c-1,0.3-2,0.6-3,0.9c0.3-0.7,0.6-1.4,0.9-2c0.7-1.9,1.5-3.8,2.2-5.8
			c0.8,1.1,1.5,2.1,2.2,2.8c0.9,1,1.8,1.9,2.7,2.8C53.3,75.8,51.6,76.2,49.9,76.7z M71,78.5c-0.7,0.8-1.6,1.1-2.7,1.1
			c-1.5,0-3.3-0.7-5.4-2.1C68.7,76.7,72,77.3,71,78.5z"/>
		<path class="st0" d="M87.4,37.8L65.5,15.9c-1.4-1.4-3.3-2.2-5.2-2.2H21l0,0c-2,0-3.8,0.8-5.2,2.2s-2.2,3.2-2.2,5.2v80.2
			c0,4.1,3.3,7.4,7.4,7.4h61.2c4.1,0,7.4-3.3,7.4-7.4V43C89.6,41.1,88.8,39.2,87.4,37.8z M83.2,39.6H67c-1.8,0-3.3-1.5-3.3-3.3V20.2
			L83.2,39.6z M82.2,104.3H21c-1.7,0-3.1-1.4-3.1-3.1V21.1c0-0.8,0.3-1.6,0.9-2.2c0.6-0.6,1.4-0.9,2.2-0.9l0,0h38.4v18.3
			c0,4.2,3.4,7.6,7.6,7.6h18.3v57.4C85.3,103,83.9,104.3,82.2,104.3z"/>
	</g>
</g>
</svg>
